<?xml version="1.0" standalone="no"?><!DOCTYPE svg PUBLIC "-//W3C//DTD SVG 1.1//EN" "http://www.w3.org/Graphics/SVG/1.1/DTD/svg11.dtd"><svg t="1566369017967" class="icon" viewBox="0 0 1024 1024" version="1.1" xmlns="http://www.w3.org/2000/svg" p-id="1009" xmlns:xlink="http://www.w3.org/1999/xlink" width="45" height="45"><defs><style type="text/css"></style></defs><path d="M66.13333333 509.97333333l-1e-8 0.32c0 0.42666667-0.10666667 0.74666667-0.10666664 1.17333334l-1e-8 0.42666666 0 1.49333334 1e-8 1.49333333-1e-8 0.42666667c0 0.42666667 0 0.74666667 0.10666666 1.17333334l0 0.31999999c0 0.42666667 0.10666667 0.85333333 0.21333334 1.28l0 0.10666667c0.96 6.08 3.73333333 12.05333333 8.42666666 16.74666666L242.02666667 701.97333333c11.73333333 11.73333333 30.93333333 11.73333333 42.66666666 0s11.73333333-30.93333333 0-42.66666666l-115.73333333-115.73333334L601.49333333 543.57333333c16.64 0 30.18666667-13.54666667 30.18666666-30.18666666 0-16.64-13.54666667-30.18666667-30.18666666-30.18666667l-432.53333333 0L284.69333333 367.36c11.73333333-11.73333333 11.73333333-30.93333333 0-42.66666668s-30.93333333-11.73333333-42.66666666 1e-8L74.66666667 491.94666667c-4.69333333 4.69333333-7.46666667 10.56-8.42666667 16.74666666l0 0.10666667c-0.10666667 0.32-0.10666667 0.74666667-0.10666667 1.17333333z" p-id="1010"></path><path d="M190.4 95.04l700.8 0L891.2 931.62666667l-700.8 0c-16.64 0-30.18666667 13.54666667-30.18666667 30.18666666 0 16.64 13.54666667 30.18666667 30.18666667 30.18666667L921.38666667 991.99999999c7.78666667 0 14.93333333-2.98666667 20.26666666-7.89333332 0.32-0.32 0.74666667-0.64 1.06666667-0.96 1.38666667-1.38666667 2.56-2.87999999 3.73333333-4.48 0.53333334-0.85333333 1.06666667-1.6 1.49333334-2.45333334 2.34666666-4.26666667 3.62666667-9.17333333 3.62666666-14.4l0-897.06666666c0-2.02666666-0.21333333-4.05333333-0.64-6.08-0.21333333-0.96-0.42666667-1.92-0.74666666-2.88-0.10666667-0.42666667-0.32-0.96-0.42666667-1.38666667-4.26666667-11.52-15.36-19.84-28.37333333-19.84l-730.98666667 0c-16.64 0-30.18666667 13.54666667-30.18666667 30.18666667 0 16.64 13.65333332 30.29333333 30.18666667 30.29333333z" p-id="1011"></path></svg>